# xmcd
#
# Track frame offsets: 
#        150
#        13419
#        29434
#        43107
#        58067
#        71474
#        84789
#        97902
#        113360
#        127349
#        141867
#        159373
#
# Disc length: 2359 seconds
#
# Revision: 3
# Processed by: cddbd v1.5.2PL0 Copyright (c) Steve Scherf et al.
# Submitted via: ExactAudioCopy v1.0b3
#
DISCID=9b09350c
DTITLE=Truck Stop - Country-Band
DYEAR=2012
DGENRE=Country
TTITLE0=Heute rocken wir das Haus
TTITLE1=Endlich wieder Wochenend
TTITLE2=Wir sind 'ne Countryband
TTITLE3=Bei uns hier auf'm Land
TTITLE4=Im Studio in Maschen
TTITLE5=Teufelsweib auf der Autobahn
TTITLE6=Beatles oder Stones
TTITLE7=So ist Sommer
TTITLE8=Alte Liebe neues Glueck
TTITLE9=Berlin - Hamburg Eurokai
TTITLE10=Mit der Harley auf Tour
TTITLE11=Prost auf die Nachbarschaft
EXTD=
EXTT0=
EXTT1=
EXTT2=
EXTT3=
EXTT4=
EXTT5=
EXTT6=
EXTT7=
EXTT8=
EXTT9=
EXTT10=
EXTT11=
PLAYORDER=
